<?xml version="1.0" encoding="utf-8"?>
<!-- Generator: Adobe Illustrator 24.2.0, SVG Export Plug-In . SVG Version: 6.00 Build 0)  -->
<svg version="1.1" id="Capa_1" xmlns="http://www.w3.org/2000/svg" xmlns:xlink="http://www.w3.org/1999/xlink" x="0px" y="0px"
	 viewBox="0 0 80 80" style="enable-background:new 0 0 80 80;" xml:space="preserve" width="80px" height="80x">
<g>
	<path d="M45.2,37.9c-0.7,0-1.4-0.6-1.4-1.4v-6.7c0-1.3-1.1-2.4-2.4-2.4H29.9c-1.3,0-2.4,1.1-2.4,2.4v6.7c0,0.7-0.6,1.4-1.4,1.4
		c-0.7,0-1.4-0.6-1.4-1.4v-6.7c0-2.9,2.3-5.2,5.1-5.2h11.5c2.9,0,5.2,2.3,5.2,5.2v6.7C46.6,37.3,46,37.9,45.2,37.9z"/>
	<path d="M59.1,77.7c-7.1,0-12.8-5.8-12.8-12.8S52,52.1,59.1,52.1s12.8,5.8,12.8,12.8S66.2,77.7,59.1,77.7z M59.1,54.8
		c-5.6,0-10.1,4.5-10.1,10.1S53.5,75,59.1,75s10.1-4.5,10.1-10.1S64.7,54.8,59.1,54.8z"/>
	<path d="M54.3,76.9H13.6c-2.2,0-4-1.8-4-4v-61c0-2.2,1.8-4,4-4h43.9c2.2,0,4,1.8,4,4v41.5h-2.8V11.9c0-0.7-0.5-1.2-1.2-1.2H13.6
		c-0.7,0-1.2,0.5-1.2,1.2v61c0,0.7,0.5,1.2,1.2,1.2h40.7L54.3,76.9L54.3,76.9z"/>
	<path d="M35.7,23.2c-3.1,0-5.6-2.5-5.6-5.6s2.5-5.6,5.6-5.6c3.1,0,5.6,2.5,5.6,5.6S38.7,23.2,35.7,23.2z M35.7,14.8
		c-1.6,0-2.9,1.3-2.9,2.9c0,1.6,1.3,2.9,2.9,2.9s2.9-1.3,2.9-2.9C38.5,16,37.3,14.8,35.7,14.8z"/>
	<path d="M31.7,38.1c-0.7,0-1.4-0.6-1.4-1.4v-4.1c0-0.7,0.6-1.4,1.4-1.4c0.7,0,1.4,0.6,1.4,1.4v4.1C33.1,37.5,32.5,38.1,31.7,38.1z"
		/>
	<path d="M39.4,38.1c-0.7,0-1.4-0.6-1.4-1.4v-4.1c0-0.7,0.6-1.4,1.4-1.4s1.4,0.6,1.4,1.4v4.1C40.8,37.5,40.2,38.1,39.4,38.1z"/>
	<path d="M52.6,41.6h-34c-0.7,0-1.4-0.6-1.4-1.4c0-0.7,0.6-1.4,1.4-1.4h34c0.7,0,1.4,0.6,1.4,1.4C54,41,53.4,41.6,52.6,41.6z"/>
	<path d="M52.6,48.4h-34c-0.7,0-1.4-0.6-1.4-1.4c0-0.7,0.6-1.4,1.4-1.4h34c0.7,0,1.4,0.6,1.4,1.4C54,47.8,53.4,48.4,52.6,48.4z"/>
	<path d="M52.6,54.8h-34c-0.7,0-1.4-0.6-1.4-1.4s0.6-1.4,1.4-1.4h34c0.7,0,1.4,0.6,1.4,1.4C54,54.2,53.4,54.8,52.6,54.8z"/>
	<path d="M48.1,61.8H18.6c-0.7,0-1.4-0.6-1.4-1.4c0-0.7,0.6-1.4,1.4-1.4h29.5c0.7,0,1.4,0.6,1.4,1.4C49.5,61.2,48.9,61.8,48.1,61.8z
		"/>
	<path d="M47.4,68.7H18.6c-0.7,0-1.4-0.6-1.4-1.4c0-0.7,0.6-1.4,1.4-1.4h28.9c0.7,0,1.4,0.6,1.4,1.4C48.8,68.1,48.2,68.7,47.4,68.7z
		"/>
	<path d="M57.3,71.1L57.3,71.1c-0.4,0-0.8-0.2-1.1-0.6l-3.3-4.4c-0.4-0.6-0.3-1.5,0.3-1.9c0.6-0.4,1.5-0.3,1.9,0.3l2.2,2.9l5.9-8
		c0.4-0.6,1.3-0.7,1.9-0.3s0.7,1.3,0.3,1.9l-7,9.5C58.1,71,57.7,71.1,57.3,71.1z"/>
	<path d="M66.6,55h-2.8V6.6c0-0.7-0.5-1.2-1.2-1.2H18.8c-0.7,0-1.2,0.5-1.2,1.2v3.2h-2.8V6.6c0-2.2,1.8-4,4-4h43.9c2.2,0,4,1.8,4,4
		L66.6,55L66.6,55z"/>
</g>
</svg>
