<?xml version="1.0" encoding="utf-8"?>
<!-- Generator: Adobe Illustrator 25.2.1, SVG Export Plug-In . SVG Version: 6.00 Build 0)  -->
<svg version="1.1" id="Capa_1" xmlns="http://www.w3.org/2000/svg" xmlns:xlink="http://www.w3.org/1999/xlink" x="0px" y="0px"
	 viewBox="0 0 152.1 182.1" style="enable-background:new 0 0 152.1 182.1;" xml:space="preserve" width="80px" height="80x">
<style type="text/css">
	.st0{fill:none;stroke:#BE955B;stroke-width:3.0167;stroke-linecap:round;stroke-linejoin:round;stroke-miterlimit:10;}
	.st1{fill:none;stroke:#BE955B;stroke-width:3.0167;stroke-miterlimit:10;}
	.st2{fill:none;stroke:#BE955B;stroke-width:2.7562;stroke-linecap:round;stroke-linejoin:round;stroke-miterlimit:10;}
	.st3{fill:none;stroke:#BE955B;stroke-width:3.2661;stroke-linecap:round;stroke-linejoin:round;stroke-miterlimit:10;}
	.st4{fill:none;stroke:#BE955B;stroke-width:7.8569;stroke-linecap:round;stroke-linejoin:round;stroke-miterlimit:10;}
</style>
<g>
	<g>
		<g>
			<path class="st0" d="M44.3,74.6v-12c0-3.8,3.1-6.8,6.8-6.8h20.8c3.8,0,6.8,3.1,6.8,6.8v12"/>
			<path class="st1" d="M94.2,144.8H21.7c-2.5,0-4.6-2-4.6-4.6V30.4c0-2.5,2-4.6,4.6-4.6h79c2.5,0,4.6,2,4.6,4.6v47.2"/>
			<circle class="st0" cx="61.4" cy="40.6" r="7.6"/>
			<line class="st0" x1="54.3" y1="67.7" x2="54.3" y2="75.1"/>
			<line class="st0" x1="68.2" y1="67.7" x2="68.2" y2="75.1"/>
			<line class="st0" x1="30.6" y1="93.6" x2="60.3" y2="93.6"/>
			<line class="st0" x1="30.6" y1="112.5" x2="56.2" y2="112.5"/>
			<line class="st0" x1="30.6" y1="130.2" x2="62.9" y2="130.2"/>
			<path class="st1" d="M114.7,83V20.7c0-2.5-2-4.6-4.6-4.6h-79c-2.5,0-4.6,2-4.6,4.6v5.8"/>
		</g>
		<g>
			<path class="st2" d="M113.2,101c1.2,2.8,1.8,5.8,1.8,8.9c0,6.1-2.5,11.7-6.3,15.8"/>
			<circle class="st3" cx="92.1" cy="110" r="35"/>
			<line class="st4" x1="125.7" y1="141.2" x2="142.6" y2="158"/>
		</g>
	</g>
</g>
</svg>
