<?xml version="1.0" encoding="utf-8"?>
<!-- Generator: Adobe Illustrator 25.2.1, SVG Export Plug-In . SVG Version: 6.00 Build 0)  -->
<svg version="1.1" id="Capa_1" xmlns="http://www.w3.org/2000/svg" xmlns:xlink="http://www.w3.org/1999/xlink" x="0px" y="0px"
	 viewBox="0 0 100 100" style="enable-background:new 0 0 100 100;" xml:space="preserve">
<style type="text/css">
	.st0{fill:#4E4D4D;}
</style>
<g id="Grupo_378" transform="translate(-34.43 -12.88)">
	<path id="Trazado_4493" class="st0" d="M114.5,41.5L91.9,16.3c-0.4-0.5-1-0.7-1.6-0.7h-33c-5.1,0-9.2,4.1-9.2,9.2v73.8
		c0,5.1,4.1,9.2,9.2,9.2h48.5c5.1,0,9.2-4.1,9.2-9.2V42.9C115,42.4,114.8,41.9,114.5,41.5z M93.3,24.4l16.2,18.1H98.2
		c-2.7,0-4.9-2.2-4.9-4.9V24.4z M105.8,103.5H57.3c-2.7,0-4.9-2.2-4.9-4.9V24.8c0-2.7,2.2-4.9,4.9-4.9H89v17.7
		c0,5.1,4.1,9.2,9.2,9.2h12.5v51.7C110.7,101.3,108.5,103.4,105.8,103.5z"/>
	<path id="Trazado_4494" class="st0" d="M99.8,56.9H63.9c-1.2,0-2.2,1-2.2,2.2c0,1.2,1,2.2,2.2,2.2h35.9c1.2,0,2.2-1,2.2-2.2
		C102,57.8,101,56.9,99.8,56.9C99.8,56.9,99.8,56.9,99.8,56.9z"/>
	<path id="Trazado_4495" class="st0" d="M99.8,68.8H63.9c-1.2,0-2.2,1-2.2,2.2c0,1.2,1,2.2,2.2,2.2h35.9c1.2,0,2.2-1,2.2-2.2
		C102,69.8,101,68.8,99.8,68.8z"/>
	<path id="Trazado_4496" class="st0" d="M99.8,79.7H63.9c-1.2,0-2.2,1-2.2,2.2c0,1.2,1,2.2,2.2,2.2h35.9c1.2,0,2.2-1,2.2-2.2
		C102,80.7,101,79.7,99.8,79.7z"/>
	<path id="Trazado_4497" class="st0" d="M88.3,90.4H63.9c-1.2,0-2.2,1-2.2,2.2c0,1.2,1,2.2,2.2,2.2c0,0,0,0,0,0h24.4
		c1.2,0,2.2-1,2.2-2.2S89.5,90.4,88.3,90.4z"/>
</g>
</svg>
