<?xml version="1.0" encoding="utf-8"?>
<!-- Generator: Adobe Illustrator 24.2.0, SVG Export Plug-In . SVG Version: 6.00 Build 0)  -->
<svg version="1.1" xmlns="http://www.w3.org/2000/svg" xmlns:xlink="http://www.w3.org/1999/xlink" x="0px" y="0px"
	 viewBox="0 0 100 100" style="enable-background:new 0 0 100 100;" xml:space="preserve">
<style type="text/css">
	.st0{display:none;}
	.st1{display:inline;}
	.st2{fill:#4E4D4D;}
	.st3{fill:none;stroke:#000000;stroke-width:3.017;stroke-miterlimit:10;}
	.st4{fill:none;stroke:#000000;stroke-width:2.756;stroke-linecap:round;stroke-linejoin:round;stroke-miterlimit:10;}
	.st5{fill:none;stroke:#000000;stroke-width:3.266;stroke-linecap:round;stroke-linejoin:round;stroke-miterlimit:10;}
	.st6{fill:none;stroke:#000000;stroke-width:7.857;stroke-linecap:round;stroke-linejoin:round;stroke-miterlimit:10;}
</style>
<g id="Capa_1" class="st0">
	<g id="Grupo_407" transform="translate(-31.869 -12.483)" class="st1">
		<path id="Trazado_4560" class="st2" d="M98,24.2c-0.3,0-0.6-0.1-0.9-0.2c-14.7-8.8-31.8-0.7-32-0.6c-0.8,0.5-1.9,0.2-2.4-0.6
			c-0.5-0.8-0.2-1.9,0.6-2.4c0.1-0.1,0.2-0.1,0.3-0.1c0.8-0.4,18.9-9,35.3,0.7c0.8,0.5,1.1,1.5,0.6,2.3C99.2,23.9,98.6,24.2,98,24.2
			z"/>
		<path id="Trazado_4561" class="st2" d="M116,44.8c-0.8,0-1.4-0.5-1.7-1.2c-2.9-9.9-8.6-14.2-8.6-14.3c-0.8-0.6-0.9-1.6-0.4-2.4
			s1.6-0.9,2.4-0.4c0.3,0.2,6.6,5,9.9,16.1c0.3,0.9-0.3,1.9-1.2,2.1C116.3,44.7,116.1,44.8,116,44.8z"/>
		<path id="Trazado_4562" class="st2" d="M57.3,38.3c-0.4,0-0.7-0.1-1-0.3c-0.8-0.6-0.9-1.6-0.4-2.4c6-7.5,15-11.9,24.7-11.9h0.3
			c9.7-0.4,19,4.1,24.7,11.9c0.6,0.8,0.4,1.8-0.3,2.4c-0.8,0.6-1.8,0.4-2.4-0.3l0,0c-5-6.9-13.2-10.9-21.7-10.5c-0.1,0-0.1,0-0.2,0
			c-8.6-0.1-16.8,3.8-22.2,10.5C58.4,38,57.9,38.3,57.3,38.3z"/>
		<path id="Trazado_4563" class="st2" d="M112.3,55c-0.8,0-1.5-0.6-1.7-1.4c-0.9-3.5-2.2-6.8-4.1-9.8c-0.4-0.9-0.1-1.9,0.8-2.3
			c0.8-0.4,1.7-0.2,2.2,0.5c2.1,3.4,3.6,7.1,4.5,11c0.2,0.9-0.4,1.8-1.4,2C112.5,55,112.4,55,112.3,55z"/>
		<path id="Trazado_4564" class="st2" d="M112.4,79.9c-0.1,0-0.3,0-0.4-0.1c-0.9-0.2-1.5-1.1-1.3-2.1l0,0c1.5-5.9,1.7-12.1,0.7-18.1
			c-0.2-0.9,0.4-1.8,1.4-2c0.9-0.2,1.8,0.4,2,1.3c1.1,6.5,0.9,13.2-0.7,19.6C113.9,79.3,113.2,79.9,112.4,79.9z"/>
		<path id="Trazado_4565" class="st2" d="M49.4,52.1c-0.1,0-0.2,0-0.3,0c-0.9-0.1-1.6-1-1.5-2l0,0c0.8-4,2.6-7.8,5.1-11
			c0.6-0.7,1.7-0.8,2.4-0.2s0.8,1.6,0.3,2.3c-2.1,2.8-3.6,6-4.4,9.4C51,51.4,50.3,52,49.4,52.1z"/>
		<path id="Trazado_4566" class="st2" d="M106,62.7c-0.9,0-1.6-0.6-1.7-1.5c-1.5-10.7-5.4-18.3-11.6-22.5C84.2,33,74.1,35.4,74,35.4
			c-0.1,0-0.2,0-0.3,0.1C63,36.1,57,52.4,56.9,52.6c0,0.1-0.1,0.2-0.1,0.3c-1.7,2.2-3.8,4-6.3,5.3c-0.9,0.4-1.9,0-2.3-0.8
			c-0.4-0.8-0.1-1.8,0.7-2.3c1.9-0.9,3.5-2.2,4.9-3.8c0.8-2,7.3-18.4,19.6-19.2c7.3-1.6,15-0.2,21.3,3.8
			c7.1,4.8,11.5,13.2,13.2,24.9c0.1,0.9-0.5,1.8-1.5,1.9C106.2,62.7,106.1,62.7,106,62.7z"/>
		<path id="Trazado_4567" class="st2" d="M105.4,77.7c-0.1,0-0.3,0-0.4-0.1c-0.9-0.2-1.5-1.2-1.2-2.1c0.8-2.8,1.1-5.6,1.1-8.5
			c-0.1-0.9,0.5-1.8,1.5-1.9c0.9-0.1,1.8,0.5,1.9,1.5c0,0.1,0,0.2,0,0.3c0,3.2-0.4,6.4-1.3,9.5C106.9,77.1,106.2,77.7,105.4,77.7z"
			/>
		<path id="Trazado_4568" class="st2" d="M104.7,84.5c-0.2,0-0.3,0-0.4-0.1c-3.3-0.9-9.2-5.1-8.1-14.7l0.1-0.3
			c1.1-4.9,1.3-9.9,0.5-14.8c-0.1-0.3-3.1-10.6-13.4-12.9C83,41.6,70,39.8,64.1,54.4c-0.1,0.2-0.2,0.4-0.4,0.6L51.3,67.1
			c-0.7,0.6-1.8,0.5-2.4-0.2c-0.5-0.7-0.5-1.6,0-2.2l12-11.9c7-16.8,22.8-14.5,23-14.4c12.5,2.7,16,14.9,16.1,15.5
			c0.9,5.4,0.8,11-0.5,16.3c-0.9,8.9,5.4,10.8,5.6,10.9c0.9,0.3,1.5,1.2,1.2,2.2C106.1,84,105.4,84.5,104.7,84.5z"/>
		<path id="Trazado_4569" class="st2" d="M100.8,90.9c-0.1,0-0.3,0-0.4-0.1c-2.6-0.4-5-1.6-7-3.3c-7-6.4-3.7-19.8-3.3-21.4
			c1.7-15.7-8-17.2-8.4-17.2c-5.2-0.8-10.3,2.2-12,7.3c-0.6,2.3-1.6,4.4-3,6.3c-0.1,0.1-0.1,0.2-0.2,0.2L53.7,75
			c-0.7,0.6-1.8,0.5-2.4-0.2c-0.5-0.7-0.5-1.6,0-2.3L64,60.2c1.1-1.5,1.8-3.1,2.3-4.9c2.1-6.7,8.8-11,15.8-9.9
			c0.2,0,13.6,2,11.4,21.1l-0.1,0.3c0,0.1-3.5,12.9,2.3,18.2c0.1,0.1,0.1,0.1,0.2,0.2l0,0c1.5,1.2,3.3,2,5.2,2.3
			c0.9,0.2,1.5,1.2,1.3,2.1l0,0C102.3,90.3,101.6,90.9,100.8,90.9z"/>
		<path id="Trazado_4570" class="st2" d="M94.1,100.5c-0.3,0-0.6-0.1-0.8-0.2c-0.4-0.2-10.2-5.6-10-20.5c0-1,0.8-1.7,1.7-1.7
			c1,0,1.7,0.8,1.7,1.7l0,0c-0.2,12.8,7.9,17.3,8.2,17.5c0.8,0.5,1.1,1.5,0.7,2.3C95.3,100.1,94.7,100.5,94.1,100.5z"/>
		<path id="Trazado_4571" class="st2" d="M83.8,103.4c-0.9,0-1.7-0.8-1.7-1.7c-0.1-8.3-3-10.5-3.7-10.9c-5.5-0.5-7.8,6.6-7.9,6.9
			c-0.3,0.9-1.2,1.4-2.1,1.1l0,0c-0.9-0.3-1.4-1.2-1.1-2.2c1.1-3.6,5-10.2,11.9-9.3c0.1,0,0.2,0,0.3,0.1c0.6,0.2,5.9,2.4,6.1,14.2
			C85.5,102.6,84.8,103.4,83.8,103.4L83.8,103.4L83.8,103.4z"/>
		<path id="Trazado_4572" class="st2" d="M74.6,107.4c-0.2,0-0.3,0-0.5-0.1c-0.9-0.3-1.4-1.2-1.2-2.1l2.5-8.6c0.3-0.9,1.3-1.4,2.2-1
			c0.8,0.3,1.3,1.1,1.1,2l-2.5,8.6C76,106.9,75.3,107.4,74.6,107.4z"/>
		<path id="Trazado_4573" class="st2" d="M63.5,94c-0.5,0-1-0.2-1.3-0.6c-0.6-0.7-0.5-1.8,0.2-2.4c0.2-0.1,16-13.9,19.5-21.4
			l2.8-6.7c0.7-2.7-0.6-5.6-3-7c-0.7-0.4-1.5-0.4-2.2-0.2c-1.2,0.4-2.9,1.6-4.7,5.4c-2.4,4-5,7.9-7.9,11.5c0,0.1-0.1,0.1-0.2,0.2
			L57,82c-0.7,0.6-1.8,0.5-2.4-0.2c-0.5-0.7-0.5-1.6,0.1-2.3l9.6-9.1c2.7-3.5,5.2-7.1,7.5-10.9c1.8-3.9,4.2-6.4,6.9-7.1
			c1.6-0.5,3.4-0.3,4.9,0.5c3.9,2.2,5.8,6.7,4.6,11c0,0.1,0,0.1-0.1,0.2L85,71c-3.8,8.2-19.7,22-20.4,22.6
			C64.3,93.9,63.9,94,63.5,94z"/>
		<path id="Trazado_4574" class="st2" d="M58.8,87.3c-1,0-1.7-0.8-1.7-1.7c0-0.5,0.2-1,0.6-1.3l14.6-12.4l0,0
			c3.1-3.2,5.1-7.3,5.9-11.6c0.1-0.9,1-1.6,1.9-1.5s1.6,1,1.5,1.9c-0.9,5.2-3.4,10-7,13.7L59.9,86.9C59.6,87.2,59.2,87.3,58.8,87.3z
			"/>
	</g>
</g>
<g id="Capa_2">
	<g id="Grupo_486" transform="translate(-40.892 -31.092)">
		<g id="Grupo_484">
			<path id="Trazado_4703" class="st3" d="M69.7,73.2v-7.3c0-2.3,1.8-4.1,4.1-4.1h12.6c2.3,0,4.1,1.8,4.1,4.1v7.3"/>
			<path id="Trazado_4704" class="st3" d="M100,115.8H56c-1.5,0-2.8-1.3-2.8-2.8l0,0V46.4c0-1.5,1.3-2.8,2.8-2.8h47.9
				c1.5,0,2.8,1.3,2.8,2.8c0,0,0,0,0,0V75"/>
			<circle id="Elipse_13" class="st3" cx="80.1" cy="52.6" r="4.6"/>
			<line id="Línea_77" class="st3" x1="75.8" y1="69" x2="75.8" y2="73.5"/>
			<line id="Línea_78" class="st3" x1="84.2" y1="69" x2="84.2" y2="73.5"/>
			<line id="Línea_79" class="st3" x1="61.4" y1="84.7" x2="79.4" y2="84.7"/>
			<line id="Línea_80" class="st3" x1="61.4" y1="96.2" x2="76.9" y2="96.2"/>
			<line id="Línea_81" class="st3" x1="61.4" y1="106.9" x2="81" y2="106.9"/>
			<path id="Trazado_4705" class="st3" d="M112.4,78.3V40.5c0-1.5-1.3-2.8-2.8-2.8l0,0H61.7c-1.5,0-2.8,1.3-2.8,2.8V44"/>
		</g>
		<g id="Grupo_485">
			<path id="Trazado_4706" class="st4" d="M111.5,89.2c0.7,1.7,1.1,3.5,1.1,5.4c0,3.6-1.4,7-3.8,9.6"/>
			<circle id="Elipse_14" class="st5" cx="98.7" cy="94.7" r="21.2"/>
			<line id="Línea_82" class="st6" x1="119.1" y1="113.6" x2="129.3" y2="123.8"/>
		</g>
	</g>
</g>
</svg>
