<?xml version="1.0" encoding="utf-8"?>
<!-- Generator: Adobe Illustrator 25.2.1, SVG Export Plug-In . SVG Version: 6.00 Build 0)  -->
<svg version="1.1" id="Capa_1" xmlns="http://www.w3.org/2000/svg" xmlns:xlink="http://www.w3.org/1999/xlink" x="0px" y="0px"
	 viewBox="0 0 100 100" style="enable-background:new 0 0 100 100;" xml:space="preserve">
<style type="text/css">
	.st0{fill:none;stroke:#4E4D4D;stroke-width:1.999;stroke-miterlimit:10;}
	.st1{fill:none;stroke:#4E4D4D;stroke-width:2.285;stroke-linecap:round;stroke-linejoin:round;stroke-miterlimit:10;}
	.st2{fill:none;stroke:#4E4D4D;stroke-width:2.373;stroke-linecap:round;stroke-linejoin:round;stroke-miterlimit:10;}
</style>
<g id="Grupo_402" transform="translate(-28.933 -13.668)">
	<circle id="Elipse_4" class="st0" cx="77.6" cy="46.4" r="11.3"/>
	<path id="Trazado_4547" class="st1" d="M107.5,46.8c1.3-16.9-13.4-30-30-30c-16.6,0-30,13.4-30,30c0,0,0,0,0,0
		c0.3,4.8,1.9,9.4,4.7,13.3l25.6,38.6l25.5-38.9C105.7,55.8,107.1,51.4,107.5,46.8z"/>
	<path id="Trazado_4548" class="st2" d="M64.7,80.3c-15.4,2-26.5,7.4-26.5,13.8c0,8,17.6,14.6,39.3,14.6s39.3-6.5,39.3-14.6
		c0-6.3-10.7-11.6-25.7-13.7"/>
</g>
</svg>
