<?xml version="1.0" standalone="no"?>
<!DOCTYPE svg PUBLIC "-//W3C//DTD SVG 20010904//EN"
 "http://www.w3.org/TR/2001/REC-SVG-20010904/DTD/svg10.dtd">
<svg version="1.0" xmlns="http://www.w3.org/2000/svg"
 width="1345.000000pt" height="414.000000pt" viewBox="0 0 1345.000000 414.000000"
 preserveAspectRatio="xMidYMid meet">

<g transform="translate(0.000000,414.000000) scale(0.100000,-0.100000)"
fill="#000000" stroke="none">
<path d="M1955 3564 c-337 -49 -630 -191 -854 -414 -731 -725 -518 -1948 415
-2381 193 -90 381 -129 614 -129 179 0 297 17 440 62 749 239 1176 1011 980
1773 -119 462 -472 849 -920 1010 -160 57 -271 76 -465 80 -99 2 -193 1 -210
-1z m318 -116 c20 -10 24 -67 5 -86 -7 -7 -34 -12 -60 -12 l-48 0 0 53 c0 30
3 56 6 60 7 7 73 -3 97 -15z m-200 -45 l28 -53 -25 0 c-14 0 -26 5 -26 10 0
15 -27 12 -44 -5 -13 -13 -46 -21 -46 -11 0 3 20 63 35 104 11 30 50 7 78 -45z
m-203 23 c0 -8 -12 -19 -27 -25 l-28 -10 29 2 c38 3 44 -18 9 -32 l-28 -11 32
4 c48 8 52 -20 5 -34 -20 -5 -43 -10 -49 -10 -14 0 -24 32 -26 81 -2 27 3 34
23 40 41 12 60 10 60 -5z m602 -41 c4 -22 10 -50 13 -62 7 -28 -5 -29 -35 -3
-25 22 -41 25 -55 11 -6 -5 -18 -6 -27 -2 -14 5 -12 13 19 54 45 61 73 62 85
2z m168 -15 c30 -15 40 -27 40 -44 0 -30 -24 -50 -51 -43 -12 3 -30 1 -40 -6
-32 -20 -39 3 -17 61 12 28 23 52 25 52 2 0 22 -9 43 -20z m-942 -25 c2 -16
10 -37 18 -46 13 -15 12 -17 -8 -22 -12 -4 -27 -2 -34 4 -8 6 -13 3 -17 -11
-9 -34 -33 -23 -51 23 -9 23 -16 47 -16 53 0 16 41 33 75 31 25 -2 31 -7 33
-32z m705 -64 c459 -105 822 -482 914 -950 23 -119 23 -348 -1 -461 -59 -275
-190 -500 -398 -681 l-57 -50 -232 203 c-128 112 -265 231 -303 265 -39 34
-72 61 -73 60 -7 -8 -32 -326 -27 -352 10 -58 18 -59 169 -38 75 11 131 15
126 10 -5 -5 -37 -26 -72 -48 -35 -21 -59 -39 -54 -40 6 0 93 -13 195 -29
l185 -28 -244 -1 -244 -1 -73 -45 c-39 -25 -77 -45 -84 -45 -7 0 -45 20 -84
45 l-73 45 -244 1 -244 1 182 28 c101 16 188 30 193 32 6 2 -19 21 -55 42 -36
21 -67 41 -69 45 -3 4 58 -2 135 -13 175 -24 174 -25 174 97 -1 111 -16 308
-25 305 -3 -2 -143 -122 -309 -268 -166 -146 -306 -266 -310 -268 -14 -5 -168
146 -224 220 -169 221 -250 457 -251 733 -1 221 34 367 130 556 94 184 232
342 395 451 171 114 315 168 534 202 72 11 332 -4 418 -23z m414 7 c21 -12 39
-22 41 -23 1 -1 0 -10 -4 -19 -5 -13 -10 -14 -20 -5 -11 9 -18 3 -35 -25 -22
-38 -26 -41 -47 -27 -10 6 -9 15 8 44 13 23 17 38 10 42 -13 8 -13 35 -1 35 6
0 27 -10 48 -22z m-1398 -132 c8 -10 7 -17 -5 -27 -14 -11 -18 -10 -32 9 -10
12 -32 27 -49 33 -18 6 -33 15 -33 19 0 12 31 21 51 15 14 -5 19 -1 19 12 0
11 6 25 13 32 10 10 13 3 19 -34 3 -25 11 -52 17 -59z m1560 25 c11 -7 11 -18
1 -62 -7 -30 -14 -57 -17 -61 -7 -14 -32 4 -35 25 -2 15 -11 23 -28 25 -53 8
-54 24 -3 53 54 30 62 32 82 20z m147 -129 c11 -7 34 -45 34 -56 0 -3 -9 -6
-20 -6 -11 0 -20 7 -20 15 0 20 -39 19 -47 -1 -4 -10 1 -22 10 -29 23 -16 21
-35 -2 -35 -23 0 -51 36 -51 64 0 42 60 72 96 48z m-1942 -37 c45 -40 43 -65
-5 -65 -27 0 -30 -2 -19 -15 10 -12 10 -18 0 -30 -10 -12 -18 -9 -55 23 -48
41 -45 62 8 62 28 0 29 1 14 18 -13 14 -14 21 -5 30 16 16 18 16 62 -23z
m2059 -99 c4 -9 -11 -28 -38 -50 -38 -32 -44 -34 -56 -20 -12 14 -8 21 26 50
44 37 60 42 68 20z m-2263 -56 c41 26 100 -2 100 -47 0 -28 -41 -73 -68 -73
-25 0 -64 43 -61 66 2 11 0 25 -4 32 -5 7 -5 22 -1 35 l8 22 5 -22 c5 -17 10
-20 21 -13z m2339 -64 c7 -8 20 -12 30 -9 9 2 24 -3 32 -13 13 -16 12 -17 -8
-12 -20 5 -23 2 -23 -20 0 -54 -62 -82 -102 -45 -22 20 -23 70 -1 95 19 21 56
24 72 4z m-2374 -118 c48 -23 49 -25 36 -46 -12 -20 -113 32 -105 53 8 20 15
19 69 -7z m2472 -64 c3 -9 1 -25 -5 -35 -16 -26 -15 -29 10 -26 14 1 23 -4 26
-14 4 -22 -98 -66 -110 -47 -11 18 -10 21 7 44 20 27 19 37 -4 24 -16 -8 -22
-6 -30 7 -9 15 -3 21 37 40 58 27 61 27 69 7z m-2554 -46 c2 -7 -1 -21 -7 -30
-8 -13 -7 -21 1 -29 16 -16 43 -4 43 20 0 10 7 21 15 25 12 4 15 -3 15 -29 0
-41 -22 -65 -60 -65 -54 0 -77 51 -44 98 17 25 30 28 37 10z m-17 -193 c34 -5
41 -10 37 -24 -3 -10 -16 -24 -29 -32 -25 -13 -25 -13 -5 -21 28 -10 27 -38
-1 -38 -49 0 -98 13 -98 26 0 7 12 22 27 34 26 20 26 21 6 26 -15 4 -19 11
-16 25 4 12 12 18 22 15 9 -2 35 -7 57 -11z m2658 -87 c23 -33 21 -68 -5 -68
-16 0 -19 4 -14 20 3 11 2 20 -4 20 -5 0 -11 -10 -13 -21 -4 -31 -32 -46 -52
-30 -21 18 -22 91 -1 91 10 0 15 -11 16 -32 2 -28 2 -29 6 -8 10 52 41 65 67
28z m-2733 -140 c2 -31 2 -31 6 -5 2 15 11 27 19 27 8 0 14 -11 15 -27 1 -28
1 -28 11 5 12 37 44 46 34 10 -3 -13 -6 -35 -6 -50 0 -26 -3 -28 -39 -28 -63
0 -71 7 -71 56 0 32 4 44 15 44 10 0 16 -11 16 -32z m2739 -38 c24 -24 26 -67
3 -92 -22 -25 -79 -24 -93 1 -38 72 35 146 90 91z m-2703 -127 c74 -23 73 -49
-2 -86 l-55 -27 0 24 c0 15 9 27 28 36 l27 13 -32 10 c-22 7 -33 16 -33 28 0
23 0 23 67 2z m2681 -79 c15 -10 22 -25 22 -48 0 -39 -26 -69 -40 -46 -5 9 -5
19 1 27 14 16 3 33 -21 33 -13 0 -20 -8 -22 -27 -4 -40 -32 -37 -36 4 -2 22 3
37 19 52 27 25 47 26 77 5z m-2599 -128 c6 -25 11 -47 11 -49 0 -5 -83 -27
-103 -27 -8 0 -18 18 -24 45 -9 41 -9 45 8 45 12 0 19 -7 19 -19 0 -11 4 -22
9 -26 6 -3 9 7 8 21 -1 15 4 29 11 31 7 3 12 -4 12 -16 0 -11 5 -23 11 -27 9
-5 10 1 5 20 -7 27 -1 46 13 46 5 0 14 -20 20 -44z m2584 -66 c9 0 9 -12 -2
-28 -7 -11 -16 -11 -52 -1 -53 15 -63 23 -56 43 5 14 11 14 54 1 26 -8 51 -15
56 -15z m-2540 -79 c2 -10 0 -26 -6 -36 -8 -15 -7 -17 6 -12 11 4 18 -1 22
-14 4 -11 5 -22 3 -23 -7 -6 -89 -36 -97 -36 -12 0 -31 47 -31 76 0 25 32 46
57 37 7 -3 16 2 19 11 8 21 21 20 27 -3z m2452 -43 c51 -60 45 -72 -37 -76
-58 -2 -67 -1 -62 13 3 8 12 15 19 15 15 0 29 35 21 49 -7 11 3 41 14 41 5 0
25 -19 45 -42z m-2391 -159 c8 -12 19 -18 24 -15 9 6 39 -21 31 -28 -15 -12
-101 -58 -103 -55 -10 12 -36 70 -36 82 0 38 60 50 84 16z m2312 -15 c38 -22
42 -28 33 -45 -10 -20 -11 -20 -46 2 l-36 22 -16 -21 c-10 -14 -21 -19 -29
-13 -10 6 -9 16 8 44 12 21 26 37 32 37 5 0 29 -12 54 -26z m-504 -411 c57
-51 -33 -148 -95 -100 -47 36 -16 117 45 117 17 0 40 -7 50 -17z m-1236 -14
c15 -17 16 -22 4 -29 -10 -6 -21 -4 -32 7 -10 9 -18 11 -18 6 0 -6 7 -16 15
-23 22 -18 19 -57 -5 -65 -20 -6 -73 16 -86 36 -11 19 19 30 37 13 26 -23 34
-16 10 10 -16 17 -21 31 -16 45 9 29 65 29 91 0z m100 -43 c15 -12 17 -17 7
-27 -10 -10 -16 -10 -25 -1 -22 22 -32 12 -10 -11 26 -27 28 -50 7 -67 -12
-10 -23 -10 -53 2 -59 22 -47 54 13 33 14 -5 12 -1 -7 15 -16 12 -28 27 -28
34 0 35 60 48 96 22z m1002 2 c-3 -7 -13 -15 -24 -16 -28 -6 -37 -17 -29 -41
7 -25 22 -27 44 -7 20 18 44 6 36 -17 -9 -22 -60 -38 -89 -27 -38 14 -49 69
-19 102 19 21 87 26 81 6z m-910 -33 c27 -8 45 -39 37 -65 -7 -21 -45 -36 -69
-27 -8 3 -17 0 -20 -8 -3 -8 -13 -11 -25 -8 -19 5 -19 7 -4 56 19 66 21 69 41
63 10 -2 27 -7 40 -11z m803 -50 l17 -54 -46 -15 c-32 -11 -49 -13 -58 -5 -9
8 -18 5 -33 -10 -25 -25 -46 -28 -37 -5 19 48 17 61 -8 78 -14 9 -26 13 -26 8
0 -5 -15 -14 -32 -20 l-33 -10 33 -1 c39 -1 46 -31 7 -31 -14 0 -25 -4 -25
-10 0 -5 13 -7 29 -4 20 4 30 1 34 -10 6 -14 -15 -22 -83 -29 -15 -2 -27 34
-29 89 -1 30 -1 30 71 42 51 8 76 8 85 0 9 -7 13 -7 13 0 0 13 39 36 47 28 3
-3 1 -19 -5 -35 -10 -28 -8 -32 19 -51 33 -24 35 -19 14 40 -19 54 -19 58 3
62 23 6 24 5 43 -57z m-221 35 c-11 -21 -40 -28 -40 -10 0 8 27 25 48 29 1 1
-2 -8 -8 -19z m-422 -32 c9 -8 10 -14 1 -25 -9 -10 -15 -11 -23 -3 -15 15 -43
12 -50 -6 -9 -22 11 -44 37 -41 13 1 23 -5 25 -15 3 -15 -4 -18 -34 -18 -45 0
-74 23 -74 60 0 60 69 88 118 48z m243 -40 l23 -31 15 31 c15 32 51 45 51 18
0 -7 3 -34 6 -60 6 -42 5 -46 -15 -46 -15 0 -21 6 -21 23 -1 22 -1 22 -16 2
-12 -16 -18 -18 -34 -7 -17 11 -20 10 -20 -8 0 -13 -7 -20 -20 -20 -18 0 -20
7 -20 65 0 75 15 85 51 33z m-123 -35 c2 -9 -7 -13 -27 -13 -21 0 -31 5 -31
16 0 19 51 16 58 -3z"/>
<path d="M2210 3405 c0 -20 4 -26 18 -23 9 2 17 12 17 23 0 11 -8 21 -17 23
-14 3 -18 -3 -18 -23z"/>
<path d="M2615 3330 c-3 -5 1 -10 9 -10 9 0 16 5 16 10 0 6 -4 10 -9 10 -6 0
-13 -4 -16 -10z"/>
<path d="M1640 3330 c0 -5 5 -10 10 -10 6 0 10 5 10 10 0 6 -4 10 -10 10 -5 0
-10 -4 -10 -10z"/>
<path d="M2132 1365 c0 -64 2 -93 8 -80 10 24 10 109 0 150 -5 20 -8 -4 -8
-70z"/>
<path d="M994 2819 c-10 -17 23 -46 37 -32 7 7 9 19 6 27 -7 18 -33 21 -43 5z"/>
<path d="M3270 2755 c-10 -11 -10 -19 -2 -27 15 -15 44 -2 40 19 -4 23 -22 27
-38 8z"/>
<path d="M3450 2075 c-15 -18 -5 -35 20 -35 25 0 33 28 11 40 -14 7 -22 6 -31
-5z"/>
<path d="M866 1582 c-3 -6 -1 -14 5 -17 15 -10 25 3 12 16 -7 7 -13 7 -17 1z"/>
<path d="M950 1394 c0 -8 5 -12 10 -9 6 3 10 10 10 16 0 5 -4 9 -10 9 -5 0
-10 -7 -10 -16z"/>
<path d="M2727 966 c-7 -19 18 -40 39 -32 8 3 14 14 12 23 -4 22 -43 29 -51 9z"/>
<path d="M1725 870 c-3 -5 1 -10 9 -10 9 0 16 5 16 10 0 6 -4 10 -9 10 -6 0
-13 -4 -16 -10z"/>
<path d="M1027 830 l-118 -99 63 -52 c173 -144 465 -296 661 -343 l27 -6 0
164 0 164 -37 12 c-82 26 -283 131 -370 194 -51 36 -96 66 -100 65 -4 0 -61
-45 -126 -99z"/>
<path d="M2996 859 c-100 -70 -256 -152 -353 -185 l-53 -19 0 -162 c0 -129 3
-163 13 -163 8 0 56 14 108 31 121 39 330 141 439 214 90 61 190 142 190 154
0 10 -226 201 -237 200 -4 0 -53 -32 -107 -70z"/>
</g>
</svg>
